<?xml version="1.0" encoding="utf-8"?>
<!-- Generator: Adobe Illustrator 18.1.0, SVG Export Plug-In . SVG Version: 6.00 Build 0)  -->
<svg version="1.1" id="Layer_1" xmlns="http://www.w3.org/2000/svg" xmlns:xlink="http://www.w3.org/1999/xlink" x="0px" y="0px"
	 viewBox="0 0 612 792" enable-background="new 0 0 612 792" xml:space="preserve">
<g>
	<path d="M421,478.5c-21,0-38.1,17.1-38.1,38.1c0,21,17.1,38.1,38.1,38.1s38.1-17.1,38.1-38.1C459.1,495.5,442,478.5,421,478.5z
		 M421,547.6c-17.2,0-31.1-13.9-31.1-31.1c0-17.2,13.9-31.1,31.1-31.1c17.2,0,31.1,13.9,31.1,31.1
		C452.1,533.7,438.2,547.6,421,547.6z"/>
	<path d="M266.9,398c-42.7,0-77.4,34.2-78.3,76.7l156.5,0C344.3,432.2,309.6,398,266.9,398z M266.9,403.7c36,0,65.7,24.2,69.8,61.9
		H197C201.2,427.9,230.9,403.7,266.9,403.7z"/>
	<path d="M361.4,407.1c-30.4-5.2-34.6-22-55.8-24.9c-18-2.5-32,4.8-38.6,9.2c-6.6-4.4-20.6-11.7-38.6-9.2
		c-21.2,3-25.4,19.8-55.8,24.9c-9.1,1.5-22-5.9-22-5.9s7.1,30.7,69.2,20.3c29.2-4.9,41.7-13.5,47.2-19.7c5.4,6.2,18,14.8,47.2,19.7
		c62.1,10.5,69.3-20.3,69.3-20.3S370.4,408.6,361.4,407.1z"/>
	<path d="M86.6,370c-0.2-0.2-0.4-0.4-0.5-0.5c9.6-6.9,15.9-18.2,15.9-30.9c0-21-17.1-38.1-38.1-38.1c-21,0-38.1,17.1-38.1,38.1
		c0,16.4,10.4,30.4,25,35.8c2,1.3,6.6,5,9.8,11.9l24.9,222.6l12.8-1.3l-19.6-223C80.7,374.8,86.6,370,86.6,370z M32.9,338.5
		c0-17.2,13.9-31.1,31.1-31.1c17.2,0,31.1,13.9,31.1,31.1c0,17.2-13.9,31.1-31.1,31.1C46.8,369.6,32.9,355.6,32.9,338.5z
		 M62.3,385.3c-1.9-4.7-4.6-7.8-6.5-9.6c2.6,0.6,5.4,0.9,8.2,0.9c6.7,0,12.9-1.7,18.4-4.7c-1.5,1.8-4.3,5.9-5.2,12L62.3,385.3z"/>
	<path d="M397.1,373.7c0.5,4.5,0.7,9,0.7,13.6c0,73.9-59.9,133.7-133.7,133.7s-133.7-59.9-133.7-133.7c0-36.1,14.3-68.8,37.5-92.8
		c9.8,5.1,21.6,9.4,35.1,12.6c-5.8,6.8-9.6,17.6-9.6,29.7c0,20.7,10.8,37.4,24.2,37.4c13.4,0,24.2-16.8,24.2-37.4
		c0-9.3-2.2-17.8-5.8-24.3c8.5,0.8,17.4,1.3,26.5,1.3c10.1,0,19.8-0.6,29.2-1.6c-3.7,6.6-6,15.2-6,24.6c0,20.7,10.9,37.4,24.2,37.4
		c13.4,0,24.2-16.8,24.2-37.4c0-12.5-4-23.5-10-30.3c13.5-3.4,25.5-7.9,35.1-13.2c9.1,9.2,16.8,19.8,23,31.3l0.9-16.1l0.5-0.9
		c-4.7-7-10-13.6-15.8-19.7c11.4-8.2,18.1-17.7,18.1-28c0-15.2-14.5-28.9-37.8-38.7c10.3-92,25.6-125,25.6-125
		c-50.3-26.9-177.4-26.1-223.3-0.5c0,0,14.7,33.2,25.7,125.8c-22.8,9.8-37,23.3-37,38.4c0,10.8,7.4,20.9,20,29.3
		c-24,25.7-38.6,60.1-38.6,98c0,79.3,64.3,143.6,143.6,143.6c79.3,0,143.6-64.3,143.6-143.6c0-5.9-0.4-11.8-1.1-17.6L397.1,373.7z
		 M164.4,103.3c40.8-22.8,150.5-23.5,195.3,0.5c0,0-16.5,40.5-24.9,153.3c-36.2,19.7-110.5,18.9-145,0.5
		C180.1,144.1,164.4,103.3,164.4,103.3z M151.2,259.6c0-10.8,9.8-20.7,26-28.3c1.2,11.3,2.4,23.3,3.5,36.2
		c41.6,21.5,117.9,21.9,163.1-0.5c0.9-12.6,2-24.3,3.1-35.3c15.7,7.6,25.1,17.3,25.1,28c0,24.3-49.4,44.1-110.4,44.1
		C200.7,303.6,151.2,283.9,151.2,259.6z"/>
</g>
<g>
	<path d="M486.7,247.3c-60.6,0-109.6,34-109.6,76c0,10.7,3.2,20.8,8.9,30c0,0,0.1,11.3-15,28.3c15.5,2,36.7-5.6,36.7-5.6
		c19.9,14.4,48,23.3,79.1,23.3c60.5,0,109.6-34,109.6-76C596.4,281.3,547.3,247.3,486.7,247.3z M486.7,391.9
		c-31,0-58.7-9.3-77.4-23.9c0,0-14.2,5.4-24.1,6.6c8.3-11.1,9.1-22.2,9.1-22.2c-6.2-8.8-9.6-18.7-9.6-29.1
		c0-37.9,45.7-68.6,102-68.6s102,30.7,102,68.6C588.7,361.2,543.1,391.9,486.7,391.9z"/>
	<g>
		<polygon points="433.7,341 450.7,341 451.2,341 457,275.7 444.9,275.7 439.5,275.7 427.4,275.7 433.2,341 		"/>
		<polygon points="451,348 433.4,348 433.1,348 431.3,369.3 435.2,369.3 449.2,369.3 453.1,369.3 451.3,348 		"/>
	</g>
	<g>
		<polygon points="526.5,341 543.6,341 544,341 549.8,275.7 537.8,275.7 532.3,275.7 520.3,275.7 526.1,341 		"/>
		<polygon points="543.9,348 526.2,348 526,348 524.1,369.3 528.1,369.3 542,369.3 546,369.3 544.1,348 		"/>
	</g>
	<g>
		<polygon points="478.3,343.6 497.7,343.6 498.3,343.6 504.9,269.1 491.1,269.1 484.9,269.1 471.2,269.1 477.8,343.6 		"/>
		<polygon points="498.1,351.6 478,351.6 477.7,351.6 475.5,375.8 480.1,375.8 496,375.8 500.5,375.8 498.4,351.6 		"/>
	</g>
</g>
<g>
	<path d="M185.9,265.4l84.1,15.5l68.7-14.7l3.1-30.2c-42.7,24.7-119.2,18.9-157,1.7L185.9,265.4z"/>
</g>
</svg>
